<?xml version="1.0" encoding="UTF-8"?>
<!DOCTYPE svg
  PUBLIC '-//W3C//DTD SVG 1.1//EN'
  'http://www.w3.org/Graphics/SVG/1.1/DTD/svg11.dtd'>
<svg version="1.1" xmlns="http://www.w3.org/2000/svg" width="27.820mm" height="23.764mm">
    <!--Autogenerated with python-barcode 0.15.1-->
    <g id="barcode_group">
        <rect width="100%" height="100%" style="fill:white"/>
        <rect x="6.500mm" y="1.000mm" width="0.520mm" height="15.000mm" style="fill:black;"/>
        <rect x="7.280mm" y="1.000mm" width="0.260mm" height="15.000mm" style="fill:black;"/>
        <rect x="8.060mm" y="1.000mm" width="0.260mm" height="15.000mm" style="fill:black;"/>
        <rect x="9.360mm" y="1.000mm" width="0.260mm" height="15.000mm" style="fill:black;"/>
        <rect x="10.140mm" y="1.000mm" width="0.780mm" height="15.000mm" style="fill:black;"/>
        <rect x="11.180mm" y="1.000mm" width="0.520mm" height="15.000mm" style="fill:black;"/>
        <rect x="12.220mm" y="1.000mm" width="0.260mm" height="15.000mm" style="fill:black;"/>
        <rect x="13.000mm" y="1.000mm" width="0.780mm" height="15.000mm" style="fill:black;"/>
        <rect x="14.300mm" y="1.000mm" width="0.520mm" height="15.000mm" style="fill:black;"/>
        <rect x="15.080mm" y="1.000mm" width="0.520mm" height="15.000mm" style="fill:black;"/>
        <rect x="15.860mm" y="1.000mm" width="0.780mm" height="15.000mm" style="fill:black;"/>
        <rect x="16.900mm" y="1.000mm" width="0.260mm" height="15.000mm" style="fill:black;"/>
        <rect x="17.940mm" y="1.000mm" width="0.520mm" height="15.000mm" style="fill:black;"/>
        <rect x="19.240mm" y="1.000mm" width="0.780mm" height="15.000mm" style="fill:black;"/>
        <rect x="20.280mm" y="1.000mm" width="0.260mm" height="15.000mm" style="fill:black;"/>
        <rect x="20.800mm" y="1.000mm" width="0.520mm" height="15.000mm" style="fill:black;"/>
        <text x="13.910mm" y="21.000mm" style="fill:black;font-size:10pt;text-anchor:middle;">01</text>
    </g>
</svg>
